# xmcd
#
# Track frame offsets:
#	150
#	22045
#	44255
#	65177
#	91160
#	112075
#	133947
#	156605
#	180065
#	202005
#
# Disc length: 3039 seconds
#
# Revision: 1
# Processed by: cddbd v1.5PL3 Copyright (c) Steve Scherf et al.
# Submitted via: CDex 1.50Beta5
#
DISCID=910bdd0a
DTITLE=松田聖子 - My Story
DYEAR=1997
DGENRE=Pop
TTITLE0=So much in love
TTITLE1=波乱万丈
TTITLE2=Friend
TTITLE3=私だけの天使
TTITLE4=あなたのその胸に
TTITLE5=輝く未来に
TTITLE6=切なすぎる心
TTITLE7=Jealousy
TTITLE8=二人の愛のかたち
TTITLE9=Sing
EXTD=
EXTT0=
EXTT1=
EXTT2=
EXTT3=
EXTT4=
EXTT5=
EXTT6=
EXTT7=
EXTT8=
EXTT9=
PLAYORDER=
